# xmcd CD database file
#
# Track frame offsets:
#	150
#	31213
#	48524
#	70544
#	92829
#	116737
#	135657
#	155720
#	178890
#	199958
#	223259
#	253857
#	277377
#	300098
#	326048
#
# Disc length: 4638 seconds
#
# Revision: 2
# Processed by: cddbd v1.5.2PL0 Copyright (c) Steve Scherf et al.
# Submitted via: CDex 1.70beta3
#
DISCID=e9121c0f
DTITLE=MISIA - Super Best Records -15th Celebration- disc 3
DYEAR=2013
DGENRE=JPop
TTITLE0=INTO THE LIGHT (15th ver.)
TTITLE1=HOLIDAY
TTITLE2=太陽の地図
TTITLE3=Escape
TTITLE4=名前のない空を見上げて
TTITLE5=地平線の向こう側へ
TTITLE6=冬のエトランジェ
TTITLE7=飛び方を忘れた小さな鳥
TTITLE8=心ひとつ
TTITLE9=キスして抱きしめて
TTITLE10=MELODY
TTITLE11=We are the music
TTITLE12=LIFE IN HARMONY
TTITLE13=つつみ込むように…
TTITLE14=明日へ (15th ver.)
EXTD=YEAR: 2013
EXTT0=
EXTT1=
EXTT2=
EXTT3=
EXTT4=
EXTT5=
EXTT6=
EXTT7=
EXTT8=
EXTT9=
EXTT10=
EXTT11=
EXTT12=
EXTT13=
EXTT14=
PLAYORDER=
